<?xml version="1.0" encoding="utf-8"?>
<!-- Generator: Adobe Illustrator 30.1.0, SVG Export Plug-In . SVG Version: 9.03 Build 0)  -->
<svg version="1.0" id="Layer_1" xmlns="http://www.w3.org/2000/svg" xmlns:xlink="http://www.w3.org/1999/xlink" x="0px" y="0px"
	 viewBox="0 0 1280 853" style="enable-background:new 0 0 1280 853;" xml:space="preserve">
<style type="text/css">
	.st0{fill:#DDAF73;}
</style>
<path class="st0" d="M858.9,263.7c-9.3,14.2-13.2,21.2-17.8,32.6c-3.7,9.1-7,15.1-19.1,34.7c-10.8,17.7-22.8,44.6-24.4,55
	c-0.3,1.9-1.4,7.8-2.5,13c-2.1,9.5-5,34.2-7.1,60.5c-1.5,18.3-5.5,45.8-8.1,56.5c-1.2,4.7-6.8,20-12.6,34s-11.4,29.3-12.5,34
	c-1.1,4.7-4.2,17.5-6.9,28.5c-6.9,28.8-7.9,35.5-7.9,54.7c0,16.8,1,27.3,5.5,55.8c2.1,13.2,3.7,25.1,7.1,53.2l0.6,4.8H564.7l0.6-5.2
	c1.5-11.9,2.9-68.1,2.4-93.3c-0.4-24.3-0.7-28.2-3.1-39c-5.8-26.5-9.3-32.7-27.1-48c-3.9-3.3-12.7-12.1-19.6-19.5
	c-11-11.7-38.7-38.9-55.8-54.6c-10.7-9.8-15.2-17-25.1-39.9c-2.8-6.6-6.3-14-7.7-16.5c-4.6-8-16-23.3-22.7-30.4L465,396
	c7.8,10.3,26.8,30,28.9,30c1.9,0,4-4.3,7.9-16.5c7.3-22.7,8.9-38.1,5.2-52.3c-1-4.3-3.1-14.8-4.5-23.5c-2.2-13-4.1-20.2-11.4-42
	c-4.9-14.4-10.3-30-12.1-34.7c-7.1-18.7-12.4-37.5-13.5-47.5c-1-8.5-6.9-35.5-10.1-45.5l53.1-25.5c2.9,14,6.1,23.1,14.8,42
	c3,6.6,11.6,27.5,19.2,46.5c13.8,34.8,19.3,46.4,24.8,52.7c2.9,3.2,11.3,8.3,13.8,8.3c2.4,0-0.2-17-11.5-74
	c-3.3-16.7-4.8-27-5.6-39.5c-1.5-23.2-3.6-41.5-6.6-57l56.4-6c1.6,12.7,3.8,23.6,8.7,43c8.1,31.9,11.1,46.1,12.5,60.2
	c2.1,20.4,6,50.8,7.4,56.6c1.8,7.5,5.9,13.2,12.1,16.8c2.7,1.6,5.4,2.9,5.8,2.9c0.4,0,1.7-2.1,2.9-4.6c1.5-3.6,2.3-8.9,3.4-23.3
	c1.6-22.1,2.4-27.2,7.6-50.1c9.7-43,9.8-44,10.3-83.9l51.8,20.9c-0.9,6.7-1.8,24.3-2.3,48.5c-0.6,32.4-1.1,40.7-3.3,56.6
	c-3.8,26.8-4.3,40.6-2,49.4c1.8,7,1.8,7,7.3,9.7c4.6,2.3,6.6,2.7,12.1,2.5c8.3-0.3,10.5-2,27.7-21.1c25-27.7,31.7-37.1,43.2-61.1
	L858.9,263.7z"/>
<path class="st0" d="M465,396l-58.4,38.6c-3.6-3.9-6.8-7.7-7.1-8.5c-0.3-0.9-1.8-2.3-3.4-3.1c-1.6-0.8-6.2-5.1-10.1-9.5
	c-18.5-20.3-26.2-27.5-37.5-35c-12.2-8-13.5-9.8-13.5-18c0-5.1,4.3-12.3,9.3-15.4c1.9-1.1,6.5-2.9,10.2-3.8c5.9-1.4,8-1.5,17.4-0.4
	c25.5,3.1,42.4,8.5,56.9,18.2C436.8,364.5,455.8,383.9,465,396z"/>
<path class="st0" d="M508.5,138.5L455.4,164c-7.2-23-11.4-49.6-9.4-60.8c1.7-10.2,7.4-18.2,15.9-22.7c8.1-4.1,19-2.6,25.2,3.6
	C494.5,91.5,503.4,114.1,508.5,138.5z"/>
<path class="st0" d="M613.8,111.5l-56.4,6c-3.1-16.2-6.4-40.2-7.1-51.7c-0.7-11,1.3-18,7-24.4c3.9-4.4,7.3-6.8,13.2-9.1
	c5.2-2,13.5-1.5,19,1.1c10.4,4.9,13.3,11.1,18.4,39.8C610.1,84.9,612.7,102.1,613.8,111.5z"/>
<path class="st0" d="M736.3,150l-51.8-20.9c0.2-18.8,0.9-35.8,1.5-38.8c1.5-6.9,6-12.8,13-16.7c4.7-2.7,6.5-3.1,12.5-3.1
	c6,0.1,7.9,0.5,12.5,3.1c6.3,3.5,11.4,9.6,13.2,15.7C738.9,95,738.4,135.8,736.3,150z"/>
<path class="st0" d="M874.1,234.9c-5.4,13.5-6.8,16.1-15.2,28.8L819,234.5c8.9-18.6,17.7-32.2,25.6-39.4c6.4-5.8,10.7-7.5,18-6.9
	c7.2,0.6,12.4,4.2,15.8,10.9C882.8,208,881.9,215.4,874.1,234.9z"/>
</svg>
